<svg version="1.1" id="Layer_1" xmlns="http://www.w3.org/2000/svg" xmlns:xlink="http://www.w3.org/1999/xlink" x="0px" y="0px"
	 width="100%" viewBox="0 0 225 225" enable-background="new 0 0 225 225" xml:space="preserve">
<path fill="#FFFEFE" opacity="1.000000" stroke="none" 
	d="
M157.000000,226.000000 
	C104.666672,226.000000 52.833340,226.000000 1.000007,226.000000 
	C1.000005,151.000000 1.000005,76.000015 1.000002,1.000017 
	C75.999992,1.000011 150.999985,1.000011 225.999969,1.000006 
	C225.999985,75.999985 225.999985,150.999969 226.000000,225.999969 
	C203.166672,226.000000 180.333328,226.000000 157.000000,226.000000 
M84.878548,193.782455 
	C90.473526,195.123245 96.000504,197.013763 101.674515,197.715561 
	C138.266129,202.241379 170.260803,185.760910 187.696503,155.177246 
	C198.641785,135.978302 201.484848,115.222572 196.133636,93.936539 
	C187.785095,60.727642 166.492767,39.520840 133.331253,31.057861 
	C125.691299,29.108105 117.318840,30.030947 109.283730,29.626534 
	C100.470230,29.182943 91.967796,30.738916 83.732040,33.768570 
	C51.060963,45.787136 28.818243,77.173767 28.600348,111.485901 
	C28.360430,149.265732 49.324818,180.162338 84.878548,193.782455 
z"/>
<path fill="#EB212A" opacity="1.000000" stroke="none" 
	d="
M84.531738,193.593506 
	C49.324818,180.162338 28.360430,149.265732 28.600348,111.485901 
	C28.818243,77.173767 51.060963,45.787136 83.732040,33.768570 
	C91.967796,30.738916 100.470230,29.182943 109.283730,29.626534 
	C117.318840,30.030947 125.691299,29.108105 133.331253,31.057861 
	C166.492767,39.520840 187.785095,60.727642 196.133636,93.936539 
	C201.484848,115.222572 198.641785,135.978302 187.696503,155.177246 
	C170.260803,185.760910 138.266129,202.241379 101.674515,197.715561 
	C96.000504,197.013763 90.473526,195.123245 84.531738,193.593506 
M70.926643,113.989479 
	C76.356537,113.993492 81.789688,113.893791 87.214348,114.064323 
	C88.855087,114.115906 90.472290,114.916107 91.734665,115.912613 
	C81.222977,123.524231 70.691467,131.108749 60.216286,138.770279 
	C58.117599,140.305252 56.233398,142.133484 53.899559,144.349594 
	C54.105042,144.555954 54.309998,144.942352 54.516075,144.942947 
	C67.889954,144.981705 81.263969,144.998856 94.637703,144.948547 
	C95.004280,144.947174 95.368011,144.190109 96.308128,143.357193 
	C98.831367,142.127380 101.541832,141.173798 103.841934,139.614777 
	C110.152122,135.337723 116.419434,130.974915 122.463158,126.332870 
	C130.029648,120.521233 132.589676,121.024818 140.071594,126.742485 
	C145.867020,131.171326 148.274353,131.275528 154.248032,127.041946 
	C164.967972,119.444664 175.668686,111.819778 186.330154,104.140785 
	C188.981598,102.231079 191.452286,100.070412 193.431076,97.413086 
	C184.992294,97.275276 176.553711,97.085876 168.114502,97.051796 
	C166.750687,97.046280 165.384109,97.731270 164.070572,98.835495 
	C166.272461,100.424202 168.474365,102.012909 171.136322,103.933571 
	C164.015686,109.041199 157.919846,113.560265 151.658966,117.837807 
	C148.870361,119.743011 146.193832,120.051674 143.362350,117.021912 
	C139.558105,112.951286 135.137619,109.456596 130.856491,105.124405 
	C129.916031,105.027855 128.975586,104.931305 127.510941,104.966087 
	C127.335602,104.924789 127.160271,104.883484 126.787186,104.070465 
	C125.096436,103.712753 123.400841,103.023491 121.715675,103.048096 
	C102.809235,103.324188 83.904167,103.698196 64.999260,104.072838 
	C58.050095,104.210556 51.102345,104.419601 43.491512,104.904106 
	C39.695412,107.404510 35.899311,109.904922 32.440716,113.225632 
	C33.861355,113.482155 35.281044,113.954681 36.702789,113.960945 
	C47.797413,114.009888 58.892437,113.969185 70.926643,113.989479 
z"/>
<path fill="#FDFAFA" opacity="1.000000" stroke="none" 
	d="
M130.981659,105.714676 
	C135.137619,109.456596 139.558105,112.951286 143.362350,117.021912 
	C146.193832,120.051674 148.870361,119.743011 151.658966,117.837807 
	C157.919846,113.560265 164.015686,109.041199 171.136322,103.933571 
	C168.474365,102.012909 166.272461,100.424202 164.511795,98.444817 
	C174.637360,98.044456 184.321716,98.034775 194.006058,98.025101 
	C191.452286,100.070412 188.981598,102.231079 186.330154,104.140785 
	C175.668686,111.819778 164.967972,119.444664 154.248032,127.041946 
	C148.274353,131.275528 145.867020,131.171326 140.071594,126.742485 
	C132.589676,121.024818 130.029648,120.521233 122.463158,126.332870 
	C116.419434,130.974915 110.152122,135.337723 103.841934,139.614777 
	C101.541832,141.173798 98.831367,142.127380 95.572227,143.513351 
	C81.307648,143.721848 67.778969,143.774170 54.250294,143.826492 
	C56.233398,142.133484 58.117599,140.305252 60.216286,138.770279 
	C70.691467,131.108749 81.222977,123.524231 92.266388,115.499344 
	C93.423302,114.637131 94.048508,114.188179 95.474709,113.164032 
	C86.371529,113.164032 78.190079,113.164032 69.544373,113.091995 
	C63.969730,113.013176 58.858070,113.076202 53.749275,112.982826 
	C46.532814,112.850929 39.318462,112.603416 32.103210,112.405334 
	C35.899311,109.904922 39.695412,107.404510 44.273872,104.816116 
	C49.862057,104.723831 54.667900,104.708900 59.473705,104.717064 
	C81.977463,104.755287 104.481201,104.799881 126.984947,104.842186 
	C127.160271,104.883484 127.335602,104.924789 128.069046,104.988678 
	C129.411987,105.245743 130.196823,105.480209 130.981659,105.714676 
z"/>
<path fill="#E40C1E" opacity="1.000000" stroke="none" 
	d="
M126.886063,104.456329 
	C104.481201,104.799881 81.977463,104.755287 59.473705,104.717064 
	C54.667900,104.708900 49.862057,104.723831 44.605087,104.662109 
	C51.102345,104.419601 58.050095,104.210556 64.999260,104.072838 
	C83.904167,103.698196 102.809235,103.324188 121.715675,103.048096 
	C123.400841,103.023491 125.096436,103.712753 126.886063,104.456329 
z"/>
<path fill="#DA0116" opacity="1.000000" stroke="none" 
	d="
M54.074928,144.088043 
	C67.778969,143.774170 81.307648,143.721848 95.284698,143.727478 
	C95.368011,144.190109 95.004280,144.947174 94.637703,144.948547 
	C81.263969,144.998856 67.889954,144.981705 54.516075,144.942947 
	C54.309998,144.942352 54.105042,144.555954 54.074928,144.088043 
z"/>
<path fill="#B6262F" opacity="1.000000" stroke="none" 
	d="
M32.271965,112.815483 
	C39.318462,112.603416 46.532814,112.850929 53.749275,112.982826 
	C58.858070,113.076202 63.969730,113.013176 69.539230,113.290039 
	C69.998344,113.560112 69.987335,113.956177 69.987335,113.956177 
	C58.892437,113.969185 47.797413,114.009888 36.702789,113.960945 
	C35.281044,113.954681 33.861355,113.482155 32.271965,112.815483 
z"/>
<path fill="#C6121D" opacity="1.000000" stroke="none" 
	d="
M193.718567,97.719093 
	C184.321716,98.034775 174.637360,98.044456 164.485901,98.075607 
	C165.384109,97.731270 166.750687,97.046280 168.114502,97.051796 
	C176.553711,97.085876 184.992294,97.275276 193.718567,97.719093 
z"/>
<path fill="#B81926" opacity="1.000000" stroke="none" 
	d="
M70.456985,113.972824 
	C69.987335,113.956177 69.998344,113.560112 70.003487,113.362076 
	C78.190079,113.164032 86.371529,113.164032 95.474709,113.164032 
	C94.048508,114.188179 93.423302,114.637131 92.449188,115.229736 
	C90.472290,114.916107 88.855087,114.115906 87.214348,114.064323 
	C81.789688,113.893791 76.356537,113.993492 70.456985,113.972824 
z"/>
<path fill="#E40C1E" opacity="1.000000" stroke="none" 
	d="
M130.919067,105.419540 
	C130.196823,105.480209 129.411987,105.245743 128.331146,104.923019 
	C128.975586,104.931305 129.916031,105.027855 130.919067,105.419540 
z"/>
</svg>